<svg xmlns="http://www.w3.org/2000/svg" xmlns:xlink="http://www.w3.org/1999/xlink" width="150" zoomAndPan="magnify" viewBox="0 0 112.5 44.999999" height="60" preserveAspectRatio="xMidYMid meet" version="1.0"><defs><g/><clipPath id="6fbf5b37bf"><path d="M 0 0.0976562 L 112.003906 0.0976562 L 112.003906 44.898438 L 0 44.898438 Z M 0 0.0976562 " clip-rule="nonzero"/></clipPath></defs><g clip-path="url(#6fbf5b37bf)"><path fill="#ffffff" d="M 0 0.0976562 L 112.003906 0.0976562 L 112.003906 44.902344 L 0 44.902344 Z M 0 0.0976562 " fill-opacity="1" fill-rule="nonzero"/><path fill="#f1f5f9" d="M 0 0.0976562 L 112.003906 0.0976562 L 112.003906 44.902344 L 0 44.902344 Z M 0 0.0976562 " fill-opacity="1" fill-rule="nonzero"/></g><g fill="#000000" fill-opacity="1"><g transform="translate(1.082622, 33.951093)"><g><path d="M 2.625 -14.953125 L 2.625 -18.140625 C 2.644531 -20.367188 3.171875 -22.15625 4.203125 -23.5 C 5.234375 -24.84375 6.660156 -25.515625 8.484375 -25.515625 C 9.265625 -25.515625 10.007812 -25.398438 10.71875 -25.171875 C 11.425781 -24.953125 11.9375 -24.722656 12.25 -24.484375 L 12.734375 -24.171875 L 10.9375 -20.53125 C 10.46875 -20.800781 9.953125 -20.9375 9.390625 -20.9375 C 8.742188 -20.9375 8.3125 -20.71875 8.09375 -20.28125 C 7.882812 -19.84375 7.78125 -19.078125 7.78125 -17.984375 L 7.78125 -14.953125 L 11.21875 -14.953125 L 11.21875 -11.015625 L 7.78125 -11.015625 L 7.78125 0 L 2.625 0 L 2.625 -11.015625 L 0.46875 -11.015625 L 0.46875 -14.953125 Z M 2.625 -14.953125 "/></g></g></g><g fill="#000000" fill-opacity="1"><g transform="translate(9.737574, 33.951093)"><g><path d="M 6.625 -14.953125 L 6.625 -7.84375 C 6.625 -6.363281 6.84375 -5.3125 7.28125 -4.6875 C 7.726562 -4.070312 8.488281 -3.765625 9.5625 -3.765625 C 10.632812 -3.765625 11.394531 -4.070312 11.84375 -4.6875 C 12.289062 -5.3125 12.515625 -6.363281 12.515625 -7.84375 L 12.515625 -14.953125 L 17.671875 -14.953125 L 17.671875 -6.59375 C 17.671875 -4.101562 17.023438 -2.304688 15.734375 -1.203125 C 14.441406 -0.109375 12.382812 0.4375 9.5625 0.4375 C 6.738281 0.4375 4.679688 -0.109375 3.390625 -1.203125 C 2.097656 -2.304688 1.453125 -4.101562 1.453125 -6.59375 L 1.453125 -14.953125 Z M 6.625 -14.953125 "/></g></g></g><g fill="#000000" fill-opacity="1"><g transform="translate(26.581969, 33.951093)"><g><path d="M 1.75 0 L 1.75 -14.953125 L 6.90625 -14.953125 L 6.90625 -13.375 L 6.96875 -13.375 C 8.3125 -14.71875 9.738281 -15.390625 11.25 -15.390625 C 11.988281 -15.390625 12.722656 -15.289062 13.453125 -15.09375 C 14.179688 -14.90625 14.878906 -14.609375 15.546875 -14.203125 C 16.222656 -13.796875 16.769531 -13.21875 17.1875 -12.46875 C 17.601562 -11.71875 17.8125 -10.847656 17.8125 -9.859375 L 17.8125 0 L 12.65625 0 L 12.65625 -8.453125 C 12.65625 -9.234375 12.40625 -9.914062 11.90625 -10.5 C 11.414062 -11.082031 10.769531 -11.375 9.96875 -11.375 C 9.195312 -11.375 8.492188 -11.070312 7.859375 -10.46875 C 7.222656 -9.863281 6.90625 -9.191406 6.90625 -8.453125 L 6.90625 0 Z M 1.75 0 "/></g></g></g><g fill="#000000" fill-opacity="1"><g transform="translate(43.572086, 33.951093)"><g><path d="M 2.765625 -1.84375 C 1.367188 -3.375 0.671875 -5.242188 0.671875 -7.453125 C 0.671875 -9.671875 1.367188 -11.546875 2.765625 -13.078125 C 4.171875 -14.617188 5.953125 -15.390625 8.109375 -15.390625 C 10.085938 -15.390625 11.71875 -14.769531 13 -13.53125 L 13 -25.078125 L 18.171875 -25.078125 L 18.171875 0 L 13.0625 0 L 13.0625 -1.6875 L 13 -1.6875 C 11.71875 -0.269531 10.085938 0.4375 8.109375 0.4375 C 5.953125 0.4375 4.171875 -0.320312 2.765625 -1.84375 Z M 7.15625 -10 C 6.488281 -9.34375 6.15625 -8.5 6.15625 -7.46875 C 6.15625 -6.4375 6.472656 -5.59375 7.109375 -4.9375 C 7.753906 -4.289062 8.601562 -3.96875 9.65625 -3.96875 C 10.664062 -3.96875 11.492188 -4.296875 12.140625 -4.953125 C 12.796875 -5.617188 13.125 -6.457031 13.125 -7.46875 C 13.125 -8.5 12.785156 -9.34375 12.109375 -10 C 11.441406 -10.65625 10.625 -10.984375 9.65625 -10.984375 C 8.65625 -10.984375 7.820312 -10.65625 7.15625 -10 Z M 7.15625 -10 "/></g></g></g><g fill="#2563eb" fill-opacity="1"><g transform="translate(61.213807, 33.951093)"><g><path d="M 1.75 0 L 1.75 -14.953125 L 6.90625 -14.953125 L 6.90625 -13.375 L 6.96875 -13.375 C 8.3125 -14.71875 9.738281 -15.390625 11.25 -15.390625 C 12.34375 -15.390625 13.363281 -15.164062 14.3125 -14.71875 C 15.269531 -14.269531 15.988281 -13.582031 16.46875 -12.65625 C 17.988281 -14.476562 19.644531 -15.390625 21.4375 -15.390625 C 23.03125 -15.390625 24.398438 -14.941406 25.546875 -14.046875 C 26.691406 -13.160156 27.265625 -11.765625 27.265625 -9.859375 L 27.265625 0 L 22.09375 0 L 22.09375 -8.453125 C 22.09375 -9.253906 21.875 -9.921875 21.4375 -10.453125 C 21 -10.984375 20.34375 -11.25 19.46875 -11.25 C 18.71875 -11.25 18.140625 -11.019531 17.734375 -10.5625 C 17.335938 -10.113281 17.117188 -9.566406 17.078125 -8.921875 L 17.078125 0 L 11.921875 0 L 11.921875 -8.453125 C 11.921875 -9.253906 11.703125 -9.921875 11.265625 -10.453125 C 10.828125 -10.984375 10.171875 -11.25 9.296875 -11.25 C 8.503906 -11.25 7.90625 -11 7.5 -10.5 C 7.101562 -10.007812 6.90625 -9.425781 6.90625 -8.75 L 6.90625 0 Z M 1.75 0 "/></g></g></g><g fill="#2563eb" fill-opacity="1"><g transform="translate(87.646558, 33.951093)"><g><path d="M 16.875 -6.765625 L 6.03125 -6.765625 C 6.03125 -5.710938 6.367188 -4.929688 7.046875 -4.421875 C 7.734375 -3.921875 8.472656 -3.671875 9.265625 -3.671875 C 10.109375 -3.671875 10.769531 -3.78125 11.25 -4 C 11.738281 -4.226562 12.296875 -4.671875 12.921875 -5.328125 L 16.640625 -3.46875 C 15.085938 -0.863281 12.503906 0.4375 8.890625 0.4375 C 6.640625 0.4375 4.707031 -0.332031 3.09375 -1.875 C 1.476562 -3.425781 0.671875 -5.289062 0.671875 -7.46875 C 0.671875 -9.644531 1.476562 -11.507812 3.09375 -13.0625 C 4.707031 -14.613281 6.640625 -15.390625 8.890625 -15.390625 C 11.265625 -15.390625 13.191406 -14.703125 14.671875 -13.328125 C 16.160156 -11.960938 16.90625 -10.007812 16.90625 -7.46875 C 16.90625 -7.113281 16.894531 -6.878906 16.875 -6.765625 Z M 6.1875 -9.625 L 11.859375 -9.625 C 11.742188 -10.394531 11.4375 -10.988281 10.9375 -11.40625 C 10.445312 -11.832031 9.8125 -12.046875 9.03125 -12.046875 C 8.175781 -12.046875 7.492188 -11.820312 6.984375 -11.375 C 6.484375 -10.925781 6.21875 -10.34375 6.1875 -9.625 Z M 6.1875 -9.625 "/></g></g></g><g fill="#2563eb" fill-opacity="1"><g transform="translate(102.946331, 33.951093)"><g><path d="M 5.078125 -6.234375 C 6.003906 -6.234375 6.789062 -5.90625 7.4375 -5.25 C 8.09375 -4.601562 8.421875 -3.816406 8.421875 -2.890625 C 8.421875 -1.972656 8.09375 -1.1875 7.4375 -0.53125 C 6.789062 0.113281 6.003906 0.4375 5.078125 0.4375 C 4.160156 0.4375 3.375 0.113281 2.71875 -0.53125 C 2.070312 -1.1875 1.75 -1.972656 1.75 -2.890625 C 1.75 -3.816406 2.070312 -4.601562 2.71875 -5.25 C 3.375 -5.90625 4.160156 -6.234375 5.078125 -6.234375 Z M 5.078125 -6.234375 "/></g></g></g></svg>